<?xml version="1.0" standalone="no"?>
<!DOCTYPE svg PUBLIC "-//W3C//DTD SVG 20010904//EN"
 "http://www.w3.org/TR/2001/REC-SVG-20010904/DTD/svg10.dtd">
<svg version="1.0" xmlns="http://www.w3.org/2000/svg"
 width="568.000000pt" height="568.000000pt" viewBox="0 0 568.000000 568.000000"
 preserveAspectRatio="xMidYMid meet">
<metadata>
Created by potrace 1.14, written by Peter Selinger 2001-2017
</metadata>
<g transform="translate(0.000000,568.000000) scale(0.100000,-0.100000)"
fill="#000000" stroke="none">
<path d="M587 5486 c-123 -71 -126 -73 -94 -79 31 -5 653 -356 870 -491 298
-185 584 -450 770 -714 30 -42 34 -54 22 -58 -9 -4 -26 6 -44 26 -44 50 -52
60 -47 60 5 0 -26 35 -116 133 -27 28 -48 55 -48 59 0 4 -7 8 -15 8 -8 0 -15
7 -15 15 0 8 -7 15 -17 15 -9 0 -14 3 -10 6 3 4 -13 23 -35 43 -23 20 -48 44
-57 54 -8 9 -21 17 -29 17 -7 0 -10 5 -7 10 3 6 -2 13 -12 17 -10 4 -24 15
-31 25 -7 10 -19 18 -26 18 -8 0 -16 7 -20 15 -3 8 -17 20 -31 27 -14 6 -25
17 -25 24 0 6 -11 15 -25 18 -14 4 -35 17 -46 30 -11 13 -38 32 -60 41 -21 10
-36 21 -34 25 2 4 -35 29 -83 55 -104 58 -752 428 -802 458 -75 46 -106 30
-120 -63 -7 -41 -9 -564 -8 -1433 l3 -1369 650 -373 c612 -353 655 -376 737
-395 57 -13 122 -21 185 -21 86 0 123 6 228 36 13 4 61 -17 145 -64 69 -39
136 -72 150 -74 31 -5 135 32 182 64 89 61 192 186 218 265 7 19 15 34 19 34
5 0 11 -27 15 -61 11 -113 57 -312 102 -451 54 -166 170 -400 256 -519 130
-180 96 -155 732 -520 l578 -331 87 4 c82 4 92 7 170 52 l82 47 143 -80 c78
-45 148 -81 154 -81 6 0 19 17 28 37 13 30 17 72 17 198 0 174 -11 246 -50
307 -21 35 -94 84 -106 72 -2 -3 -8 17 -12 43 -16 108 -48 129 -168 112 -71
-10 -204 -8 -262 5 -135 30 -333 142 -468 266 -61 56 -75 77 -127 184 -79 163
-135 356 -155 531 -3 33 -8 74 -10 90 -6 40 -6 382 0 420 2 17 7 56 10 88 6
48 24 125 49 202 34 105 147 235 206 235 18 0 183 -166 370 -374 110 -123 205
-206 234 -206 6 0 50 22 98 50 48 27 91 50 95 50 5 0 26 -26 48 -57 97 -137
159 -180 201 -139 28 29 37 74 40 211 4 240 -27 346 -150 502 -34 43 -72 94
-86 113 -83 120 -236 283 -373 397 -205 171 -428 291 -647 349 -96 25 -287 24
-360 -2 -54 -19 -264 -133 -258 -140 2 -1 19 1 38 5 237 53 621 -87 934 -339
150 -121 405 -397 390 -422 -9 -15 -23 -9 -54 25 -78 84 -110 121 -110 129 0
4 -7 8 -16 8 -8 0 -12 5 -9 10 3 6 2 10 -3 10 -6 0 -40 29 -77 65 -37 36 -72
65 -77 65 -5 0 -7 4 -4 9 3 5 -8 14 -24 21 -17 7 -30 19 -30 26 0 8 -7 14 -15
14 -9 0 -18 7 -22 16 -3 8 -23 22 -44 31 -22 8 -39 20 -39 27 0 6 -30 27 -67
46 -37 19 -100 56 -140 83 -41 26 -79 45 -84 41 -5 -3 -25 6 -43 20 -19 14
-36 22 -40 19 -3 -3 -12 -1 -20 6 -8 6 -18 11 -22 9 -5 -1 -25 4 -44 11 -19 8
-42 15 -50 16 -8 2 -33 6 -55 10 -80 14 -237 7 -288 -14 -16 -6 -32 -11 -37
-11 -22 0 -115 -61 -161 -105 -64 -62 -140 -178 -170 -258 -27 -71 -23 -76
-54 83 -67 340 -223 695 -434 985 -36 50 -68 92 -71 95 -3 3 -23 30 -45 60
-212 295 -487 543 -840 757 -117 71 -693 401 -753 432 -23 11 -54 21 -69 21
-16 0 -83 -32 -156 -74z m868 -1126 c3 -6 -1 -7 -9 -4 -18 7 -21 14 -7 14 6 0
13 -4 16 -10z m-57 -46 c-3 -14 -5 -12 -10 9 -3 19 -2 25 4 19 6 -6 8 -18 6
-28z m102 32 c0 -2 -8 -10 -17 -17 -16 -13 -17 -12 -4 4 13 16 21 21 21 13z
m-132 -18 c-5 -14 -36 -20 -43 -8 -3 5 4 7 15 5 11 -2 20 0 20 6 0 5 3 9 6 9
3 0 4 -5 2 -12z m121 -33 c12 -3 19 -10 16 -15 -3 -4 6 -11 19 -14 16 -4 24
-13 23 -25 0 -11 -4 -18 -8 -15 -4 2 -9 -9 -11 -25 -4 -26 -2 -29 14 -20 10 5
23 7 28 4 6 -3 7 1 4 9 -3 9 -1 16 6 16 6 0 8 -4 5 -10 -3 -5 0 -10 7 -10 10
0 10 -2 -1 -9 -11 -7 -10 -11 7 -20 14 -7 23 -8 27 -1 3 5 11 10 17 10 5 0 0
-9 -13 -21 -17 -15 -19 -19 -6 -15 43 15 50 16 30 5 -13 -7 -23 -16 -23 -21 0
-5 10 -3 23 3 12 6 19 8 15 4 -4 -5 -2 -15 4 -24 10 -13 10 -14 -2 -3 -21 18
-32 14 -18 -7 7 -11 17 -19 22 -18 6 1 11 -6 11 -16 0 -10 5 -21 10 -25 6 -4
19 -17 29 -30 20 -23 20 -23 0 -16 -17 7 -18 6 -5 -10 12 -15 17 -15 26 -4 5
7 17 14 25 16 20 4 -37 -46 -61 -53 -22 -7 -25 -22 -4 -22 8 0 12 4 9 9 -3 4
-1 8 4 8 13 0 25 -29 25 -57 0 -15 4 -20 15 -16 12 5 11 1 -3 -23 l-17 -29 20
22 c20 23 40 20 21 -4 -6 -7 -8 -13 -3 -14 5 0 0 -4 -11 -9 -15 -6 -16 -9 -4
-9 9 -1 24 9 35 21 10 12 14 18 7 14 -8 -4 -11 0 -8 14 3 13 0 18 -7 14 -7 -5
-8 -2 -3 6 6 9 4 11 -5 5 -9 -5 -11 -4 -6 3 5 8 2 10 -8 6 -9 -3 -16 -2 -16 3
0 12 57 11 67 -2 5 -6 4 -7 -2 -2 -21 17 -28 5 -6 -13 18 -16 21 -23 12 -34
-6 -7 -9 -20 -5 -29 3 -8 0 -18 -7 -23 -9 -5 -10 -2 -6 10 4 10 3 15 -3 11 -6
-4 -8 -17 -6 -30 3 -13 1 -26 -2 -28 -4 -2 -2 -3 4 -1 13 3 24 -5 42 -28 11
-14 10 -20 -7 -37 -19 -19 -19 -20 -1 -18 10 1 16 5 14 9 -3 4 -1 8 5 8 15 0
23 -18 10 -26 -8 -5 -7 -9 2 -14 16 -11 21 -40 6 -40 -7 0 -4 -5 6 -11 15 -9
16 -13 5 -27 -12 -15 -11 -16 4 -4 14 11 18 10 28 -8 9 -16 8 -22 -6 -27 -15
-6 -15 -7 2 -20 15 -11 16 -16 6 -22 -11 -7 -11 -9 2 -14 22 -9 20 -22 -6 -36
-13 -6 -15 -9 -5 -6 10 2 20 -2 23 -10 3 -8 14 -17 25 -20 10 -4 19 -13 19
-22 0 -14 -2 -14 -18 0 -10 10 -25 17 -33 16 -8 0 -4 -4 9 -9 20 -8 21 -13 12
-32 -10 -21 -10 -22 3 -5 9 10 18 14 21 8 3 -5 -6 -19 -21 -31 -18 -14 -21
-18 -7 -11 21 10 34 6 34 -11 0 -5 -6 -6 -12 -2 -7 4 -4 -2 6 -14 19 -22 19
-22 0 -23 -16 -1 -16 -2 -2 -6 10 -2 15 -10 11 -19 -4 -11 0 -15 12 -12 10 2
20 -4 22 -12 4 -13 3 -13 -6 0 -8 11 -11 12 -11 2 0 -7 -3 -11 -7 -9 -5 3 -15
-2 -23 -11 -13 -14 -12 -15 5 -8 11 4 26 9 33 10 8 1 17 9 22 16 5 8 12 12 15
8 8 -8 -23 -38 -40 -38 -21 0 -27 -17 -9 -24 8 -3 12 -2 9 4 -3 6 -1 11 4 11
6 1 16 2 21 3 6 0 15 8 20 16 6 9 10 10 10 3 0 -6 -5 -15 -10 -18 -6 -4 -7
-12 -3 -18 4 -7 0 -6 -10 2 -15 12 -17 11 -17 -3 0 -14 11 -21 33 -17 4 0 7
-4 7 -10 0 -6 -7 -9 -15 -5 -13 5 -14 2 -4 -15 12 -24 -3 -50 -16 -28 -5 8 -4
10 3 5 7 -4 12 -2 12 3 0 6 -5 11 -11 11 -5 0 -8 4 -5 8 12 20 -10 28 -29 9
-17 -17 -17 -19 -3 -14 21 8 34 -9 13 -17 -9 -3 -13 -14 -11 -28 3 -13 5 -27
5 -31 1 -5 5 -6 10 -2 5 3 9 -8 9 -24 -1 -18 -5 -28 -11 -24 -6 3 -7 1 -3 -5
3 -6 -2 -15 -11 -21 -10 -6 -13 -11 -7 -11 5 0 15 5 22 12 9 9 12 9 12 1 0 -7
-5 -15 -10 -18 -6 -4 -9 -14 -8 -23 2 -9 -2 -17 -9 -17 -6 0 -14 -3 -18 -7 -9
-9 16 -5 33 5 6 5 12 4 12 -2 0 -5 -4 -13 -10 -16 -5 -3 -10 -12 -10 -18 0 -7
9 1 19 16 10 16 20 24 22 18 2 -6 10 -2 16 8 11 17 10 20 -7 18 -11 -1 -20 -5
-20 -10 0 -4 -4 -6 -10 -2 -5 3 -7 12 -3 21 4 10 9 11 18 4 8 -7 12 -5 12 5 0
8 -5 11 -10 8 -6 -3 -7 -1 -3 5 4 7 2 12 -4 12 -6 0 -8 5 -3 13 12 18 12 66 0
74 -6 3 -7 1 -3 -5 4 -7 2 -10 -6 -7 -15 6 -22 45 -8 45 4 0 11 -7 14 -16 3
-8 10 -12 16 -9 5 3 18 1 27 -5 15 -9 14 -10 -7 -4 -25 7 -25 6 -7 -14 11 -12
14 -22 8 -26 -6 -4 -7 -14 -4 -23 4 -11 3 -14 -5 -9 -7 4 -12 2 -12 -3 0 -6 5
-11 11 -11 6 0 9 -7 5 -15 -7 -18 10 -20 18 -2 2 6 4 2 2 -10 -1 -12 -5 -26
-9 -29 -4 -4 -2 -13 4 -20 7 -8 6 -14 -2 -20 -7 -4 -9 -3 -5 4 4 7 -1 10 -14
9 -11 -1 -20 -2 -20 -3 0 -17 15 -32 28 -27 14 4 14 3 3 -5 -21 -15 -22 -40
-3 -52 14 -8 14 -10 2 -11 -8 -1 -19 -1 -23 0 -5 1 -7 -4 -4 -11 2 -7 12 -12
22 -10 13 3 10 -4 -11 -23 -16 -15 -22 -25 -14 -22 19 6 20 -37 2 -55 -9 -9
-8 -15 1 -27 8 -10 8 -13 0 -8 -6 4 -13 1 -16 -5 -3 -10 -8 -10 -18 1 -12 12
-12 13 1 6 8 -5 12 -4 7 0 -4 5 3 19 15 32 21 22 13 34 -8 13 -7 -7 -11 -6
-11 4 0 8 3 15 6 14 17 -2 21 3 14 15 -12 20 -12 38 0 30 7 -3 8 -2 4 3 -5 5
-12 9 -15 9 -4 0 -13 4 -19 8 -8 5 -13 4 -13 -2 0 -6 5 -11 11 -11 5 0 8 -4 4
-9 -3 -5 -1 -12 5 -16 6 -4 5 -11 -3 -19 -15 -17 -28 -11 -20 9 3 8 1 15 -4
15 -5 0 -9 -11 -9 -24 0 -14 3 -23 7 -20 4 2 12 -3 19 -11 10 -13 10 -19 -4
-33 -9 -10 -16 -23 -16 -28 0 -5 5 -2 10 6 9 13 10 13 11 0 1 -8 3 -19 4 -25
2 -5 3 -16 4 -23 1 -8 6 -10 14 -6 6 4 9 4 5 -1 -4 -4 -3 -15 3 -24 6 -9 0 -3
-15 12 -14 16 -23 33 -20 39 4 6 2 8 -4 4 -6 -3 -15 2 -21 11 -6 10 -11 15
-11 11 0 -4 10 -23 22 -44 20 -33 20 -37 4 -46 -9 -5 -13 -14 -10 -20 4 -7 2
-8 -4 -4 -11 7 -16 -5 -13 -31 1 -6 -3 -14 -9 -18 -6 -3 -7 0 -4 9 3 9 1 16
-5 16 -6 0 -11 -9 -11 -19 0 -22 -23 -34 -38 -19 -7 7 -17 6 -31 -4 -12 -8
-18 -18 -14 -21 3 -4 1 -7 -5 -7 -19 0 -14 18 8 30 11 6 20 16 20 22 0 7 -5 6
-15 -2 -8 -7 -15 -9 -15 -6 0 4 -12 -6 -26 -21 -17 -19 -25 -22 -22 -11 1 9 0
17 -4 17 -23 2 -28 0 -22 -11 5 -7 3 -8 -6 -3 -10 6 -9 11 5 21 10 7 22 11 26
8 5 -3 9 -1 9 5 0 6 -9 15 -20 21 -11 6 -20 16 -20 22 0 6 8 4 18 -5 10 -10
22 -14 27 -10 4 5 4 1 0 -7 -6 -10 -1 -8 13 4 17 15 23 16 27 5 7 -19 62 -21
69 -3 3 8 12 11 22 7 14 -5 16 -3 11 11 -5 11 -3 15 5 10 6 -4 8 -3 5 3 -8 13
17 35 29 26 5 -4 1 1 -9 12 -12 13 -20 16 -25 9 -4 -6 -16 -16 -27 -23 -18
-11 -18 -11 5 -5 23 6 24 5 9 -11 -14 -14 -21 -15 -39 -5 -12 7 -20 8 -16 2 3
-5 -1 -15 -9 -22 -12 -10 -18 -10 -30 0 -8 7 -13 16 -10 19 2 4 -2 8 -10 8
-11 0 -12 -4 -4 -13 7 -8 7 -14 -1 -19 -5 -3 -10 -2 -10 4 0 13 -29 41 -43 41
-6 0 -1 -7 11 -16 12 -8 22 -20 22 -25 0 -5 -13 0 -30 12 -26 20 -44 20 -45 1
-1 -4 -6 -16 -12 -27 -6 -11 -9 -28 -8 -38 2 -9 -1 -15 -5 -12 -5 3 -7 14 -5
25 2 12 -6 27 -21 39 -13 10 -24 23 -24 27 0 4 5 3 11 -3 9 -9 16 -6 30 10 10
12 18 17 19 11 0 -6 -7 -17 -15 -24 -8 -7 -12 -16 -9 -21 8 -13 20 -11 22 4 1
6 3 25 6 40 3 22 2 26 -8 18 -7 -6 -17 -7 -21 -3 -5 4 -5 2 -1 -5 3 -6 2 -14
-4 -18 -5 -3 -10 -1 -10 5 0 8 -6 8 -20 0 -16 -9 -18 -15 -10 -30 7 -14 7 -20
0 -20 -5 0 -10 7 -10 15 0 8 0 18 -1 23 -1 12 -21 32 -31 32 -6 0 -5 -7 2 -15
7 -9 11 -17 9 -19 -2 -2 -11 6 -21 18 -12 16 -13 27 -6 37 7 11 8 9 3 -6 -5
-15 -3 -17 6 -8 6 6 8 16 5 22 -10 16 -26 13 -26 -4 0 -8 -5 -15 -12 -15 -9 0
-9 -3 0 -12 15 -15 16 -28 2 -28 -6 0 -9 3 -8 8 5 13 -29 52 -38 44 -4 -4 -2
1 5 11 15 19 26 23 15 5 -4 -7 -3 -8 4 -4 8 5 10 1 5 -11 -8 -23 1 -15 16 14
10 20 9 22 -5 16 -12 -5 -15 -3 -9 6 4 8 -2 7 -17 -3 -14 -9 -28 -13 -33 -9
-4 5 -5 -1 -2 -12 6 -18 5 -17 -9 2 -13 19 -20 21 -36 12 -13 -7 -18 -7 -14
-1 8 13 -13 62 -26 62 -5 0 -6 -4 -3 -10 3 -5 1 -10 -5 -10 -7 0 -10 6 -7 14
3 7 0 19 -6 25 -15 15 -30 14 -21 -1 4 -7 3 -9 -2 -5 -11 11 -13 56 -2 63 4 3
8 10 8 16 0 7 -4 7 -12 1 -15 -12 -49 -13 -42 -2 2 5 11 6 19 3 7 -3 18 4 25
16 10 19 9 20 -15 16 -21 -4 -24 -2 -16 8 6 8 9 22 6 32 -4 12 -2 11 6 -3 7
-13 16 -23 21 -23 11 0 10 17 -2 25 -10 6 -8 40 3 51 16 16 5 26 -11 11 -16
-15 -19 -15 -19 -2 0 8 3 13 5 10 7 -7 32 15 32 27 0 6 -8 4 -17 -3 -14 -10
-13 -8 2 10 17 21 17 23 3 18 -12 -4 -15 -2 -12 7 3 8 0 17 -6 21 -8 5 -4 15
12 32 21 23 21 25 4 21 -15 -2 -20 3 -21 24 -1 15 2 25 7 22 4 -3 8 2 8 11 0
12 6 15 19 10 14 -4 23 1 32 17 9 16 9 23 0 26 -6 2 -9 8 -6 13 4 5 -1 6 -10
3 -14 -6 -14 -8 2 -20 12 -9 14 -13 5 -14 -7 0 -10 -5 -6 -12 5 -7 3 -8 -7 -2
-8 5 -23 8 -34 6 l-20 -2 20 9 c11 5 16 10 11 10 -5 1 -4 7 1 14 14 16 12 49
-1 44 -6 -3 -11 6 -11 19 0 22 1 23 13 7 6 -9 12 -13 12 -8 0 5 6 3 12 -3 10
-10 10 -15 -2 -23 -12 -9 -12 -10 3 -5 10 3 20 0 23 -8 3 -8 12 -17 19 -20 26
-10 -40 73 -70 88 -21 11 -24 16 -12 16 10 0 16 4 13 9 -8 13 4 41 17 41 7 0
7 -4 -1 -12 -7 -7 -12 -17 -12 -23 0 -5 4 -4 9 4 6 9 11 10 15 2 4 -6 3 -11
-2 -11 -5 0 -9 -6 -9 -14 0 -14 33 -14 46 0 3 4 -2 4 -11 1 -10 -4 -18 -2 -18
3 0 6 6 10 13 10 7 0 8 3 2 8 -5 4 -11 16 -13 27 -2 18 0 17 19 -5 l21 -25
-15 26 c-14 24 -14 28 1 45 16 18 16 18 -5 0 -13 -11 -23 -15 -23 -11 0 5 -5
4 -12 -3 -17 -17 -31 -15 -24 3 3 8 -2 19 -12 24 -16 10 -16 10 1 11 9 0 17
-5 17 -11 0 -5 5 -7 10 -4 15 9 -8 35 -31 35 -10 0 -20 4 -23 9 -3 4 5 6 19 4
20 -4 23 -2 18 16 -3 12 -10 18 -17 14 -6 -3 -8 -3 -4 1 4 5 3 19 -2 31 -8 21
-7 23 16 19 16 -3 23 -1 19 6 -3 5 -14 10 -23 11 -11 0 -12 2 -4 6 7 3 19 -1
27 -7 12 -10 15 -10 15 0 0 10 3 10 15 0 13 -10 18 -11 28 -1 9 10 8 11 -8 5
-18 -7 -19 -6 -5 12 13 17 13 18 -1 7 -13 -11 -15 -6 -15 32 -1 29 3 42 10 38
6 -4 5 1 -3 10 -17 21 -8 22 27 1 l27 -16 -25 21 c-14 11 -33 23 -42 27 -10 3
-18 10 -18 16 0 6 -7 5 -17 -3 -16 -13 -17 -12 -4 3 12 16 16 16 42 3 29 -16
51 -20 34 -7 -11 8 -35 48 -35 58 0 4 8 0 18 -9 16 -15 18 -15 18 2 0 10 -6
17 -12 14 -7 -2 -15 0 -19 6 -3 6 -12 11 -18 11 -7 0 -6 -4 3 -10 9 -6 10 -10
3 -10 -6 0 -15 5 -18 10 -4 6 -12 7 -18 4 -9 -5 -9 -4 0 6 12 13 7 43 -6 36
-4 -3 -7 6 -7 19 0 13 4 21 8 19 4 -3 8 0 8 6 0 13 40 49 54 50 6 0 2 -6 -7
-12 -14 -12 -13 -15 11 -32 l27 -20 -18 21 c-12 14 -15 23 -7 28 15 9 2 26
-18 23 -9 -2 -22 -9 -28 -17 -6 -8 -17 -11 -25 -8 -10 4 -9 6 4 6 25 1 21 21
-5 22 -22 2 -22 2 -2 6 16 3 20 9 17 24 -3 10 -1 19 4 19 5 0 10 7 10 15 0 8
-5 15 -10 15 -5 0 -7 6 -4 14 4 9 -1 17 -11 19 -9 3 -3 4 13 4 17 0 36 -5 43
-10 9 -7 17 -6 25 2 9 10 8 11 -8 5 -18 -7 -19 -6 -5 12 14 18 14 18 -3 5 -15
-12 -17 -11 -15 10 2 15 -2 23 -9 22 -11 -3 -18 10 -11 20 1 1 -4 12 -11 25
-8 15 -9 28 -3 35 15 19 11 49 -6 42 -11 -4 -11 0 3 21 17 26 17 27 0 20 -16
-6 -16 -4 -4 11 12 15 12 16 -4 10 -11 -4 -16 -3 -12 4 4 6 13 8 20 5 8 -3 19
1 25 9 9 11 7 13 -12 11 -13 -1 -30 -6 -38 -11 -13 -7 -13 -6 -2 7 8 10 20 14
29 11 11 -4 14 -2 9 5 -7 11 6 17 27 13 5 -1 7 4 4 11 -2 7 -13 12 -23 10 -14
-2 -16 -1 -5 6 7 5 18 16 23 23 7 11 8 9 6 -5 -2 -10 3 -21 11 -24 10 -3 11 0
5 9 -6 11 -3 10 11 -1 16 -14 17 -13 11 6 -4 14 -1 26 9 34 13 11 14 10 10 -3
-4 -8 -2 -18 4 -22 6 -3 11 -12 11 -18 0 -7 -4 -6 -10 3 -6 9 -10 10 -10 3 0
-6 5 -15 10 -18 6 -3 10 -11 10 -17 0 -7 -6 -6 -15 2 -8 7 -15 9 -15 4 0 -5
-4 -3 -9 5 -6 9 -11 10 -15 2 -6 -10 7 -16 18 -8 2 1 12 -5 22 -14 11 -9 28
-15 39 -13 10 1 26 -3 34 -9 10 -8 13 -8 8 -1 -4 7 0 15 9 18 16 6 11 26 -7
26 -6 0 -8 -4 -4 -9 3 -5 0 -13 -6 -17 -7 -4 -9 -3 -6 3 4 6 0 14 -9 17 -10 4
-13 2 -9 -7 4 -6 0 -4 -8 5 -8 10 -18 14 -22 10 -4 -4 -2 3 4 16 8 14 8 22 1
22 -5 0 -10 10 -9 23 l0 22 9 -22 c5 -12 18 -24 29 -28z m18 20 c0 -8 -4 -12
-9 -9 -5 3 -6 10 -3 15 9 13 12 11 12 -6z m-200 -24 c0 -11 -5 -18 -9 -15 -4
3 -5 11 -1 19 7 21 12 19 10 -4z m253 -7 c0 -8 -19 -13 -24 -6 -3 5 1 9 9 9 8
0 15 -2 15 -3z m45 -13 c3 -5 2 -12 -3 -15 -5 -3 -9 1 -9 9 0 17 3 19 12 6z
m-275 -11 c0 -5 -5 -10 -11 -10 -5 0 -7 5 -4 10 3 6 8 10 11 10 2 0 4 -4 4
-10z m144 -18 c3 -5 -1 -9 -9 -9 -8 0 -12 4 -9 9 3 4 7 8 9 8 2 0 6 -4 9 -8z
m93 -14 c-3 -8 -6 -5 -6 6 -1 11 2 17 5 13 3 -3 4 -12 1 -19z m-7 -22 c0 -3
-4 -8 -10 -11 -5 -3 -10 -1 -10 4 0 6 5 11 10 11 6 0 10 -2 10 -4z m-253 -85
c0 -11 -5 -18 -9 -15 -4 3 -5 11 -1 19 7 21 12 19 10 -4z m13 -37 c0 -8 -19
-13 -24 -6 -3 5 1 9 9 9 8 0 15 -2 15 -3z m406 -6 c3 -4 -1 -5 -10 -4 -8 1
-18 5 -22 8 -3 4 1 5 10 4 8 -1 18 -5 22 -8z m4 -38 c0 -5 -7 -7 -15 -4 -8 4
-15 8 -15 10 0 2 7 4 15 4 8 0 15 -4 15 -10z m-390 -37 c0 -13 3 -13 15 -3 10
9 15 9 15 1 0 -6 -3 -11 -7 -12 -5 0 -15 -2 -23 -4 -10 -1 -15 5 -15 20 0 13
3 21 8 18 4 -2 7 -11 7 -20z m-33 2 c0 -8 -4 -15 -9 -15 -10 0 -11 14 -1 23 9
10 10 9 10 -8z m477 -54 c7 -11 -18 -33 -27 -24 -4 3 -7 2 -7 -4 0 -22 15 -22
39 -1 21 19 23 20 11 3 -29 -39 -41 -40 -60 -5 -8 15 -6 18 8 15 24 -4 37 6
21 16 -10 6 -10 9 -2 9 6 0 14 -4 17 -9z m-464 -5 c0 -2 -7 -7 -16 -10 -8 -3
-12 -2 -9 4 6 10 25 14 25 6z m3 -41 c-7 -21 -12 -19 -10 4 0 11 5 18 9 15 4
-3 5 -11 1 -19z m540 -98 c4 3 7 1 7 -5 0 -6 -9 -14 -20 -17 -11 -4 -18 -11
-14 -16 3 -6 12 -5 22 2 13 10 13 9 -1 -7 -15 -16 -19 -17 -28 -4 -9 13 -10
13 -6 0 2 -9 14 -14 27 -12 16 1 21 -2 16 -13 -5 -14 6 -20 29 -15 5 1 1 -8
-10 -19 -14 -17 -16 -24 -7 -33 9 -9 12 -8 12 5 0 9 5 17 10 17 7 0 7 -6 0
-19 -8 -16 -6 -23 12 -36 l23 -17 -25 8 c-21 6 -23 5 -12 -8 7 -9 10 -23 6
-32 -5 -12 -2 -15 11 -10 13 5 16 3 13 -7 -7 -20 11 -51 24 -43 7 4 8 3 4 -5
-4 -6 -12 -9 -17 -6 -5 4 -9 -1 -9 -9 0 -19 11 -20 29 -3 11 10 13 10 7 0 -4
-8 -2 -13 6 -13 7 0 5 -5 -6 -12 -19 -11 -19 -11 -1 -24 10 -8 15 -14 9 -14
-5 0 -2 -5 6 -10 11 -8 7 -9 -15 -6 -27 5 -28 4 -12 -8 10 -8 26 -12 36 -9 10
3 22 0 25 -5 4 -6 -3 -8 -16 -5 -22 4 -23 4 -4 -11 16 -13 17 -16 4 -16 -9 0
-19 7 -22 16 -3 8 -10 13 -15 10 -13 -8 -32 19 -25 37 3 8 1 18 -5 21 -6 4 -8
13 -5 20 3 8 0 17 -6 21 -8 5 -8 10 0 20 8 9 5 20 -13 41 -12 16 -22 36 -22
44 1 8 -3 20 -8 27 -5 7 -6 16 -3 21 3 6 -1 15 -9 22 -13 11 -13 14 2 27 16
12 16 13 1 11 -9 -2 -16 1 -15 5 1 5 -11 16 -27 24 l-30 16 28 23 c15 13 22
24 17 24 -6 0 -11 5 -11 11 0 8 4 9 13 0 8 -6 17 -8 20 -4z m-553 -1 c0 -3 -4
-8 -10 -11 -5 -3 -10 -1 -10 4 0 6 5 11 10 11 6 0 10 -2 10 -4z m598 -71 c-3
-3 -9 2 -12 12 -6 14 -5 15 5 6 7 -7 10 -15 7 -18z m36 -41 c3 -8 2 -12 -4 -9
-6 3 -10 10 -10 16 0 14 7 11 14 -7z m-604 -15 c0 -5 4 -8 9 -4 6 3 15 -4 21
-15 11 -20 10 -21 -9 -10 -12 6 -25 9 -29 6 -4 -2 -8 4 -8 15 0 10 4 19 8 19
4 0 8 -5 8 -11z m587 -16 c-4 -3 1 -12 11 -20 15 -13 15 -13 -5 -3 -24 11 -31
30 -11 30 6 0 8 -3 5 -7z m-620 -18 c0 -8 -4 -15 -9 -15 -10 0 -11 14 -1 23 9
10 10 9 10 -8z m54 -43 c-11 -4 -11 -6 0 -13 11 -7 11 -9 1 -9 -8 0 -10 -5 -6
-12 12 -19 14 -58 3 -58 -6 0 -7 -5 -4 -11 4 -6 -2 -5 -13 2 -19 12 -19 14 -4
25 15 11 15 14 -3 34 -11 12 -15 21 -10 20 21 -4 29 1 16 9 -18 12 -5 32 16
24 12 -5 13 -8 4 -11z m589 4 c0 -2 -7 -7 -16 -10 -8 -3 -12 -2 -9 4 6 10 25
14 25 6z m11 -42 c-9 -12 -18 -20 -20 -18 -2 2 1 10 8 18 9 11 9 15 -1 19 -7
3 -3 4 8 4 21 -1 21 -2 5 -23z m-654 -43 c0 -11 -5 -18 -9 -15 -4 3 -5 11 -1
19 7 21 12 19 10 -4z m681 -6 c-3 -3 -9 2 -12 12 -6 14 -5 15 5 6 7 -7 10 -15
7 -18z m22 -49 c0 -3 -4 -8 -10 -11 -5 -3 -10 -1 -10 4 0 6 5 11 10 11 6 0 10
-2 10 -4z m35 -55 c3 -5 2 -12 -3 -15 -5 -3 -9 1 -9 9 0 17 3 19 12 6z m-45
-76 c-8 -10 -9 -19 -3 -27 6 -7 13 -21 16 -30 5 -13 2 -15 -11 -11 -15 6 -16
5 -2 -13 8 -10 19 -22 24 -26 5 -3 -2 -5 -16 -5 -19 2 -25 7 -23 19 2 10 -1
20 -6 23 -5 4 -7 11 -3 16 3 5 10 7 15 4 5 -3 6 1 3 9 -3 9 -9 14 -12 13 -15
-5 -11 14 6 31 20 22 31 19 12 -3z m30 -15 c0 -5 -4 -10 -10 -10 -5 0 -10 5
-10 10 0 6 5 10 10 10 6 0 10 -4 10 -10z m-710 -50 c-6 -11 -12 -20 -14 -20
-2 0 -2 9 1 20 3 11 9 20 15 20 5 0 4 -9 -2 -20z m-13 -109 c0 -11 -5 -18 -9
-15 -4 3 -5 11 -1 19 7 21 12 19 10 -4z m763 -21 c0 -5 -2 -10 -4 -10 -3 0 -8
5 -11 10 -3 6 -1 10 4 10 6 0 11 -4 11 -10z m20 -36 c0 -8 -19 -13 -24 -6 -3
5 1 9 9 9 8 0 15 -2 15 -3z m-780 -18 c0 -3 -4 -8 -10 -11 -5 -3 -10 -1 -10 4
0 6 5 11 10 11 6 0 10 -2 10 -4z m753 -16 c3 -11 1 -18 -4 -14 -5 3 -9 12 -9
20 0 20 7 17 13 -6z m23 -100 c0 -9 -5 -17 -11 -17 -6 0 -11 8 -11 17 0 9 5
17 11 17 6 0 11 -8 11 -17z m-779 -45 c0 -8 -4 -15 -9 -15 -10 0 -11 14 -1 23
9 10 10 9 10 -8z m803 -65 c0 -5 -2 -10 -4 -10 -3 0 -8 5 -11 10 -3 6 -1 10 4
10 6 0 11 -4 11 -10z m-25 -19 c3 -5 2 -12 -3 -15 -5 -3 -9 1 -9 9 0 17 3 19
12 6z m5 -35 c0 -3 -4 -8 -10 -11 -5 -3 -10 -1 -10 4 0 6 5 11 10 11 6 0 10
-2 10 -4z m-33 -98 c-3 -8 -6 -5 -6 6 -1 11 2 17 5 13 3 -3 4 -12 1 -19z
m-752 3 c3 -5 2 -12 -3 -15 -5 -3 -9 1 -9 9 0 17 3 19 12 6z m789 -49 c3 -5
-1 -9 -9 -9 -8 0 -12 4 -9 9 3 4 7 8 9 8 2 0 6 -4 9 -8z m-39 -22 c-3 -5 -12
-10 -18 -10 -7 0 -6 4 3 10 19 12 23 12 15 0z m-670 -49 c3 -5 2 -12 -3 -15
-5 -3 -9 1 -9 9 0 17 3 19 12 6z m626 -24 c-10 -9 -11 -8 -5 6 3 10 9 15 12
12 3 -3 0 -11 -7 -18z m-905 -43 c1 -9 0 -13 -4 -10 -3 4 -7 14 -8 22 -1 9 0
13 4 10 3 -4 7 -14 8 -22z m398 17 c3 -4 -6 -6 -19 -3 -14 2 -25 6 -25 8 0 8
39 4 44 -5z m-500 -39 c3 -5 -1 -9 -9 -9 -8 0 -12 4 -9 9 3 4 7 8 9 8 2 0 6
-4 9 -8z m180 0 c2 -4 -5 -9 -17 -9 -17 -2 -19 0 -7 7 18 12 18 12 24 2z m363
-17 c0 -8 -4 -12 -9 -9 -5 3 -6 10 -3 15 9 13 12 11 12 -6z m190 -14 c9 -25 8
-29 -5 -24 -10 4 -13 2 -8 -5 5 -8 2 -10 -9 -5 -9 3 -12 9 -7 12 5 3 8 16 7
29 -2 31 9 28 22 -7z m291 4 c-3 -3 -9 2 -12 12 -6 14 -5 15 5 6 7 -7 10 -15
7 -18z m-140 3 c-2 -6 -12 -12 -22 -14 -14 -2 -15 0 -5 12 14 17 32 19 27 2z
m107 2 c-3 -5 -12 -10 -18 -10 -7 0 -6 4 3 10 19 12 23 12 15 0z m-705 -4 c0
-2 -6 -9 -14 -15 -11 -9 -16 -9 -22 0 -4 7 -3 9 4 5 6 -3 13 -2 17 4 6 10 15
14 15 6z m-220 -16 c0 -5 -2 -10 -4 -10 -3 0 -8 5 -11 10 -3 6 -1 10 4 10 6 0
11 -4 11 -10z m900 -15 c14 -19 14 -19 -2 -6 -10 7 -18 18 -18 24 0 6 1 8 3 6
1 -2 9 -13 17 -24z m-875 -25 c3 -6 -1 -7 -9 -4 -18 7 -21 14 -7 14 6 0 13 -4
16 -10z m535 0 c0 -5 -5 -10 -11 -10 -5 0 -7 5 -4 10 3 6 8 10 11 10 2 0 4 -4
4 -10z m317 3 c-4 -3 -1 -13 6 -22 11 -14 10 -14 -5 -2 -16 12 -16 31 -1 31 4
0 3 -3 0 -7z m-705 -15 c-14 -14 -44 -20 -36 -7 3 5 9 7 14 4 5 -3 11 -1 15 5
3 5 9 10 13 10 3 0 1 -5 -6 -12z m625 -13 c0 -8 -4 -12 -9 -9 -4 3 -8 9 -8 15
0 5 4 9 8 9 5 0 9 -7 9 -15z m54 -2 c13 -16 12 -17 -3 -4 -10 7 -18 15 -18 17
0 8 8 3 21 -13z m-731 -13 c0 -5 -2 -10 -4 -10 -3 0 -8 5 -11 10 -3 6 -1 10 4
10 6 0 11 -4 11 -10z m105 0 c-3 -5 -12 -10 -18 -10 -7 0 -6 4 3 10 19 12 23
12 15 0z m30 -9 c3 -5 2 -12 -3 -15 -5 -3 -9 1 -9 9 0 17 3 19 12 6z m-80 -19
c-3 -3 -11 0 -18 7 -9 10 -8 11 6 5 10 -3 15 -9 12 -12z m382 -1 c0 -11 -5
-18 -9 -15 -4 3 -5 11 -1 19 7 21 12 19 10 -4z m178 1 c-3 -3 -11 0 -18 7 -9
10 -8 11 6 5 10 -3 15 -9 12 -12z m60 9 c-9 -8 -36 -10 -30 -2 2 4 11 8 20 8
8 0 13 -3 10 -6z m-265 -17 c0 -8 -19 -13 -24 -6 -3 5 1 9 9 9 8 0 15 -2 15
-3z m-250 -38 c0 -3 -4 -8 -10 -11 -5 -3 -10 -1 -10 4 0 6 5 11 10 11 6 0 10
-2 10 -4z m135 -15 c3 -5 2 -12 -3 -15 -5 -3 -9 1 -9 9 0 17 3 19 12 6z m-30
-11 c-3 -5 -12 -10 -18 -10 -7 0 -6 4 3 10 19 12 23 12 15 0z"/>
<path d="M1470 4281 c0 -5 7 -11 14 -14 10 -4 13 -1 9 9 -6 15 -23 19 -23 5z"/>
<path d="M1370 4236 c7 -10 6 -17 -5 -26 -21 -17 -19 -30 5 -25 22 4 25 -2 10
-25 -7 -11 -10 -12 -10 -2 0 8 -5 12 -11 10 -19 -6 -14 -21 9 -24 14 -3 22 1
22 11 0 8 8 19 18 24 16 10 16 10 0 11 -10 0 -18 5 -18 11 0 5 4 8 9 4 5 -3
12 -1 16 5 4 6 12 7 18 4 8 -4 7 -2 -1 7 -11 12 -14 12 -22 -1 -9 -15 -11 -13
-14 12 0 6 -9 12 -19 14 -14 2 -16 -1 -7 -10z m13 -31 c-3 -9 -8 -14 -10 -11
-3 3 -2 9 2 15 9 16 15 13 8 -4z"/>
<path d="M1494 4166 c1 -14 4 -28 7 -31 3 -3 5 6 5 19 -1 14 -4 28 -7 31 -3 3
-5 -6 -5 -19z"/>
<path d="M1550 4170 c-7 -4 -9 -13 -5 -19 5 -9 10 -9 20 -1 8 7 15 7 19 1 4
-5 -3 -13 -15 -16 -17 -6 -19 -9 -8 -16 8 -5 23 -6 34 -3 l20 5 -20 -17 c-15
-13 -16 -15 -3 -11 23 8 52 -35 35 -53 -7 -7 -7 -10 -1 -7 16 9 56 -23 50 -40
-3 -8 -1 -11 4 -8 6 3 10 1 10 -6 0 -6 -8 -9 -20 -6 -12 3 -18 1 -14 -5 3 -5
18 -7 32 -3 23 6 24 5 11 -12 -12 -16 -12 -17 2 -6 9 7 20 9 25 5 5 -4 2 2 -7
13 -9 11 -15 25 -12 31 2 6 -5 18 -16 28 -11 10 -17 24 -14 32 3 8 2 14 -3 12
-11 -3 -84 70 -74 74 5 2 -2 10 -14 20 -13 10 -28 13 -36 8z m109 -115 c48
-65 51 -74 13 -37 -15 15 -26 29 -25 31 1 2 -7 17 -18 32 -37 52 -13 30 30
-26z"/>
<path d="M1396 4133 c-6 -14 -5 -15 5 -6 7 7 10 15 7 18 -3 3 -9 -2 -12 -12z"/>
<path d="M1358 4121 c10 -6 10 -10 -3 -21 -20 -17 -19 -30 3 -30 14 0 15 -2 2
-10 -13 -9 -13 -10 0 -10 13 0 13 -1 0 -10 -13 -8 -13 -10 2 -10 23 0 28 21
11 47 -10 14 -11 23 -4 28 6 3 11 1 11 -4 0 -6 7 -11 15 -11 12 0 11 4 -5 20
-11 11 -26 20 -32 20 -10 0 -10 -2 0 -9z"/>
<path d="M1397 4069 c7 -7 15 -10 18 -7 3 3 -2 9 -12 12 -14 6 -15 5 -6 -5z"/>
<path d="M1590 4076 c0 -2 7 -9 15 -16 13 -11 14 -10 9 4 -5 14 -24 23 -24 12z"/>
<path d="M1575 4040 c3 -5 8 -10 11 -10 2 0 4 5 4 10 0 6 -5 10 -11 10 -5 0
-7 -4 -4 -10z"/>
<path d="M1390 4021 c0 -6 4 -12 8 -15 5 -3 9 1 9 9 0 8 -4 15 -9 15 -4 0 -8
-4 -8 -9z"/>
<path d="M1633 4006 c0 -7 6 -13 14 -13 7 0 13 4 13 8 0 4 -6 9 -13 12 -8 3
-14 0 -14 -7z"/>
<path d="M1346 3951 c-4 -5 -2 -12 3 -15 7 -5 8 -41 0 -41 -1 0 -3 -10 -4 -22
-2 -18 1 -20 14 -13 10 5 24 4 34 -1 13 -8 17 -7 15 3 -2 7 3 12 10 10 8 -1
11 2 7 8 -5 8 -11 7 -21 -1 -8 -6 -18 -9 -21 -5 -4 4 -1 11 7 16 9 6 10 10 3
10 -7 0 -16 -8 -22 -17 -5 -10 -13 -15 -16 -11 -4 4 10 24 31 44 22 21 31 31
21 24 -15 -11 -20 -10 -36 4 -12 11 -21 13 -25 7z m23 -15 c9 -11 9 -16 -1
-22 -7 -4 -10 -4 -6 1 4 4 3 14 -3 22 -6 7 -9 13 -6 13 2 0 10 -6 16 -14z"/>
<path d="M1656 3938 c3 -5 10 -6 15 -3 13 9 11 12 -6 12 -8 0 -12 -4 -9 -9z"/>
<path d="M1715 3890 c3 -5 8 -10 11 -10 2 0 4 5 4 10 0 6 -5 10 -11 10 -5 0
-7 -4 -4 -10z"/>
<path d="M1345 3800 c-3 -5 -3 -10 2 -10 4 0 0 -5 -9 -11 -16 -9 -16 -12 -3
-33 8 -12 12 -26 8 -31 -5 -4 -3 -5 4 -1 7 4 10 14 7 24 -4 11 2 8 14 -8 12
-14 24 -21 28 -17 4 4 2 7 -6 7 -10 0 -10 3 0 15 11 13 10 14 -1 10 -10 -4
-15 2 -16 15 -1 13 2 18 10 13 7 -3 3 3 -7 15 -22 25 -23 25 -31 12z m19 -38
c3 -5 -1 -9 -9 -9 -8 0 -15 4 -15 9 0 4 4 8 9 8 6 0 12 -4 15 -8z"/>
<path d="M1750 3761 c0 -6 4 -13 10 -16 6 -3 7 1 4 9 -7 18 -14 21 -14 7z"/>
<path d="M1440 3740 c-9 -6 -10 -10 -3 -10 6 0 15 5 18 10 8 12 4 12 -15 0z"/>
<path d="M1795 3710 c-3 -6 1 -7 9 -4 18 7 21 14 7 14 -6 0 -13 -4 -16 -10z"/>
<path d="M1820 3691 c0 -7 -5 -9 -12 -5 -7 5 -8 3 -3 -5 5 -9 10 -10 18 -2 6
6 8 14 4 18 -4 3 -7 1 -7 -6z"/>
<path d="M1430 3659 c0 -5 5 -7 10 -4 6 3 10 8 10 11 0 2 -4 4 -10 4 -5 0 -10
-5 -10 -11z"/>
<path d="M1838 3613 c7 -3 16 -2 19 1 4 3 -2 6 -13 5 -11 0 -14 -3 -6 -6z"/>
<path d="M1830 3565 c0 -7 30 -13 34 -7 3 4 -4 9 -15 9 -10 1 -19 0 -19 -2z"/>
<path d="M1390 3541 c0 -6 4 -12 8 -15 5 -3 9 1 9 9 0 8 -4 15 -9 15 -4 0 -8
-4 -8 -9z"/>
<path d="M1875 3480 c3 -5 8 -10 11 -10 2 0 4 5 4 10 0 6 -5 10 -11 10 -5 0
-7 -4 -4 -10z"/>
<path d="M1355 3459 c-4 -6 -13 -8 -21 -5 -18 7 -18 -5 0 -40 8 -15 13 -31 11
-35 -3 -4 2 -12 10 -19 14 -11 14 -15 -2 -33 -18 -20 -18 -20 10 -2 19 12 24
21 16 25 -6 4 -7 10 -3 12 5 3 4 3 -3 2 -17 -4 -26 13 -11 19 7 2 22 0 33 -6
11 -5 17 -6 13 -2 -4 5 -2 15 5 24 11 14 10 14 -6 2 -22 -17 -34 -7 -17 14 7
8 9 15 5 15 -5 0 0 10 11 23 10 12 12 17 5 10 -10 -8 -20 -9 -32 -3 -12 7 -20
6 -24 -1z m35 -16 c0 -3 -8 -2 -17 1 -15 5 -15 4 1 -9 18 -13 15 -19 -6 -16
-4 0 -5 -6 -2 -14 4 -8 1 -15 -6 -15 -6 0 -9 4 -6 8 2 4 1 14 -4 22 -11 18 6
41 26 33 8 -3 14 -7 14 -10z"/>
<path d="M1436 3462 c-3 -5 1 -9 9 -9 8 0 12 4 9 9 -3 4 -7 8 -9 8 -2 0 -6 -4
-9 -8z"/>
<path d="M1890 3439 c0 -5 5 -7 10 -4 6 3 10 8 10 11 0 2 -4 4 -10 4 -5 0 -10
-5 -10 -11z"/>
<path d="M1425 3360 c-3 -6 1 -7 9 -4 18 7 21 14 7 14 -6 0 -13 -4 -16 -10z"/>
<path d="M1947 3209 c4 -13 8 -18 11 -10 2 7 -1 18 -6 23 -8 8 -9 4 -5 -13z"/>
<path d="M1385 3200 c3 -5 11 -10 16 -10 6 0 7 5 4 10 -3 6 -11 10 -16 10 -6
0 -7 -4 -4 -10z"/>
<path d="M1910 3196 c0 -2 8 -10 18 -17 15 -13 16 -12 3 4 -13 16 -21 21 -21
13z"/>
<path d="M1960 3136 c0 -2 7 -7 16 -10 8 -3 12 -2 9 4 -6 10 -25 14 -25 6z"/>
<path d="M1386 3084 c-9 -24 -2 -26 12 -4 7 11 8 20 3 20 -5 0 -12 -7 -15 -16z"/>
<path d="M1345 3071 c3 -5 0 -11 -7 -13 -6 -2 -12 -12 -14 -21 -1 -9 1 -15 6
-12 4 3 15 2 24 -1 13 -5 12 -9 -9 -25 -23 -19 -23 -21 -7 -40 9 -11 17 -23
17 -27 0 -4 4 -13 8 -19 5 -8 3 -13 -4 -13 -9 0 -9 -3 0 -14 9 -10 8 -15 -3
-19 -9 -4 -13 -15 -11 -28 7 -35 22 -44 34 -21 9 18 8 19 -12 15 -18 -4 -19
-3 -7 6 13 10 13 11 0 11 -9 1 -5 6 10 15 14 8 19 14 13 15 -7 0 -13 5 -13 11
0 5 6 7 13 3 6 -4 3 2 -7 14 -23 26 -11 29 17 5 17 -15 16 -11 -4 17 -13 19
-31 40 -39 47 -13 10 -12 12 7 8 12 -2 27 3 33 10 9 11 5 17 -20 30 -17 9 -28
20 -25 25 4 6 8 10 11 10 3 0 2 -5 -1 -10 -4 -6 -3 -9 2 -8 4 1 17 -3 28 -9
17 -10 20 -8 21 13 2 23 1 24 -11 7 -13 -17 -14 -17 -20 -1 -4 9 -13 19 -21
22 -8 3 -13 2 -9 -3z m45 -65 c0 -3 -4 -8 -10 -11 -5 -3 -10 -1 -10 4 0 6 5
11 10 11 6 0 10 -2 10 -4z"/>
<path d="M2030 2999 c0 -5 5 -7 10 -4 6 3 10 8 10 11 0 2 -4 4 -10 4 -5 0 -10
-5 -10 -11z"/>
<path d="M1980 2989 c0 -5 -4 -8 -9 -4 -5 3 -12 1 -15 -4 -4 -5 2 -8 11 -7 15
3 33 26 19 26 -3 0 -6 -5 -6 -11z"/>
<path d="M1390 2950 c6 -11 12 -20 14 -20 2 0 2 9 -1 20 -3 11 -9 20 -15 20
-5 0 -4 -9 2 -20z"/>
<path d="M1393 2862 c-9 -6 -7 -11 7 -20 12 -7 21 -8 25 -2 4 6 1 9 -7 8 -7
-2 -12 3 -10 10 2 14 1 14 -15 4z"/>
<path d="M2003 2835 c-10 -11 -9 -13 6 -12 11 1 17 7 14 14 -6 16 -5 16 -20
-2z"/>
<path d="M1387 2806 c-3 -8 0 -17 7 -19 10 -4 12 1 9 14 -6 23 -9 24 -16 5z"/>
<path d="M1975 2810 c3 -6 1 -10 -6 -10 -7 0 -10 -3 -6 -6 3 -3 13 -2 22 4 16
8 16 9 1 15 -10 4 -15 3 -11 -3z"/>
<path d="M2005 2797 c-24 -28 -24 -35 3 -53 22 -15 25 -15 14 -1 -15 18 -7 41
11 30 8 -5 8 -2 0 9 -7 8 -10 18 -6 21 3 4 2 7 -3 7 -5 -1 -14 -6 -19 -13z
m15 -11 c0 -2 -8 -10 -17 -17 -16 -13 -17 -12 -4 4 13 16 21 21 21 13z"/>
<path d="M1359 2781 c11 -7 11 -9 0 -13 -12 -4 -12 -8 -1 -20 10 -12 10 -17 1
-20 -23 -8 -17 -35 12 -52 16 -9 36 -31 44 -47 9 -16 20 -27 25 -24 5 3 12 0
16 -7 5 -8 10 -5 14 8 11 27 11 34 3 34 -5 0 -8 -4 -8 -9 0 -5 -3 -13 -7 -17
-5 -4 -8 -2 -8 5 0 7 -4 9 -10 6 -5 -3 -10 1 -10 10 0 9 4 14 9 11 5 -3 14 1
21 9 10 12 9 16 -4 21 -9 3 -13 10 -10 15 3 5 10 6 16 3 7 -4 8 -2 4 4 -5 9
-12 8 -26 0 -19 -12 -19 -13 1 -23 11 -6 17 -14 13 -18 -4 -4 -14 -1 -22 6
-13 9 -14 9 -8 0 4 -7 3 -13 -2 -13 -13 0 -22 39 -11 46 5 3 9 13 8 22 0 15
-1 15 -8 -1 -4 -10 -10 -18 -14 -18 -18 2 -19 0 -6 -16 9 -11 10 -14 2 -9 -7
4 -18 16 -24 28 -6 11 -7 18 -2 15 5 -3 15 -2 23 4 8 5 10 9 4 9 -6 0 -11 7
-11 15 0 8 5 15 11 15 5 0 1 7 -10 15 -10 8 -23 14 -29 15 -5 0 -4 -4 4 -9z
m18 -26 c0 -8 -4 -12 -9 -9 -5 3 -6 10 -3 15 9 13 12 11 12 -6z"/>
<path d="M1953 2765 c0 -8 4 -12 9 -9 5 3 6 10 3 15 -9 13 -12 11 -12 -6z"/>
<path d="M1926 2641 c8 -9 44 -11 44 -3 0 4 -11 8 -25 8 -13 0 -22 -2 -19 -5z"/>
<path d="M1492 2618 c-7 -7 -12 -16 -12 -21 0 -5 7 -1 16 8 9 9 14 18 12 20
-2 3 -10 -1 -16 -7z"/>
<path d="M1536 2618 c3 -4 11 -5 19 -1 21 7 19 12 -4 10 -11 0 -18 -5 -15 -9z"/>
<path d="M1565 2600 c-3 -5 -1 -10 4 -10 6 0 11 5 11 10 0 6 -2 10 -4 10 -3 0
-8 -4 -11 -10z"/>
<path d="M1650 2580 c0 -5 5 -10 11 -10 5 0 7 5 4 10 -3 6 -8 10 -11 10 -2 0
-4 -4 -4 -10z"/>
<path d="M1825 2580 c-3 -6 1 -7 9 -4 18 7 21 14 7 14 -6 0 -13 -4 -16 -10z"/>
<path d="M1915 2581 c-6 -11 13 -26 22 -17 4 3 1 6 -6 6 -7 0 -9 5 -6 10 3 6
4 10 1 10 -3 0 -7 -4 -11 -9z"/>
<path d="M1603 2561 c-10 -15 -9 -22 2 -31 10 -8 15 -8 21 1 4 7 3 14 -4 17
-6 2 -8 10 -5 18 7 20 0 17 -14 -5z"/>
<path d="M1755 2539 c-3 -4 2 -6 10 -5 21 3 28 13 10 13 -9 0 -18 -4 -20 -8z"/>
<path d="M1884 2534 c-18 -14 -18 -15 4 -4 12 6 22 13 22 15 0 8 -5 6 -26 -11z"/>
<path d="M1830 2500 c0 -5 5 -10 10 -10 6 0 10 5 10 10 0 6 -4 10 -10 10 -5 0
-10 -4 -10 -10z"/>
<path d="M1795 2444 c-9 -9 -13 -19 -10 -23 4 -3 11 2 16 12 6 9 15 14 21 11
7 -4 8 -2 4 4 -9 15 -11 15 -31 -4z"/>
<path d="M1872 2433 c6 -7 14 -10 19 -7 15 9 10 20 -10 20 -15 0 -17 -3 -9
-13z"/>
<path d="M1942 3477 c-7 -8 -6 -18 4 -31 8 -11 14 -15 14 -9 0 7 -5 15 -10 18
-8 5 -7 11 1 21 6 8 9 14 6 14 -2 0 -9 -6 -15 -13z"/>
</g>
</svg>
